<?xml version="1.0" encoding="UTF-8"?>
<svg xmlns="http://www.w3.org/2000/svg" id="Layer_1" viewBox="0 0 601.09 592.33">
  <defs>
    <style>.cls-1{fill:#fff;stroke-width:0px;}</style>
  </defs>
  <path class="cls-1" d="M155.61,11.83c5.24-3.55,11.29-4.42,14.88-1.83,6.11,4.41,1.87,16.5,1.36,17.98-2.13,6.07-6.15,9.85-8.38,11.66-1.61,4.02-1.42,8.47.92,11.41,3.52,4.42,11.76,5.23,17.98,0,4.78-3.73,12.26-9.88,20.69-18.31,12.66-12.68,15.8-18.85,24.76-23.74,5.88-3.22,15.47-6.54,30.52-4.75,6.25.91,14.57,2.77,23.74,6.78,8.04,3.52,14.36,7.65,18.99,11.19,1.78,1.41,10.7,8.76,12.21,21.71,1.74,14.93-7.8,25.1-9.11,26.45-5.35,3.63-13.75,8.66-24.81,12.55-23.71,8.33-33.58,2.22-59.01,7.12-15.25,2.94-39.62,7.63-53.25,27.13-9.62,13.77-10.07,29.43-9.5,38.32.47,11.73,2.36,27.33,8.14,44.77,8.4,25.32,21.34,43.41,30.52,54.26,7.62,12.04,20.58,19.2,33.96,18.49,13.42-.71,22.11-9.05,24.37-11.37,8.13-8.93,20.92-11.9,31.88-7.46,10.17,4.12,17.1,13.94,17.69,25.1,3.87,12.69.35,26.06-8.87,33.92-9.31,7.93-20.68,7.03-23.06,6.78-10.6.81-32.89,1.06-57.66-10.17-23.19-10.52-37.21-25.98-43.75-34.25-21.03-27.36-42.06-54.72-63.08-82.08-1.96-2.56-6.18-7.35-13.23-10.51-9.19-4.13-17.56-2.97-20.69-2.37-8.97,1.24-14.84,4.41-18.31,6.78-12.66,8.64-18.16,22.64-21.71,31.88-2.1,5.47-2.26,7.45-4.79,11.85-.53.92-10.04,17.11-17.59,15.28-5.82-1.41-7.62-12.83-8.48-18.31-2.13-13.57.91-24.5,1.52-26.47,8.27-26.52,25-68.6,59.53-111.23C96.71,49.99,132.11,25.53,155.61,11.83Z"></path>
  <path class="cls-1" d="M409.26,82.75c-6.96-13.49-18.36-19.25-21.88-20.86-5.6-2.13-14.23-4.55-24.42-3.56-15.43,1.49-21.92,9.58-49.47,26.45-13.49,8.26-22.81,14.08-35.99,19.33-16.42,6.54-31.27,9.66-42.73,11.19-3.68-.06-26.34-.05-43.75,18.31-18.28,19.28-16.14,43.35-15.77,46.8,1.33,6.37,4.65,18,13.74,29.51,11.56,14.64,25.79,20.67,32.05,22.89,23.4,3.26,33.82-3.05,38.66-7.63,12.87-12.16,18.65-28.32,18.65-28.32,1.35-3.76,2.64-8.48,6.95-11.02,4.89-2.89,11.11-1.48,15.6.17,3.25,1.09,7.92,3.27,10.51,7.8,2.42,4.22,1.59,8.2.68,15.94-.83,7.1-.93,14.26-1.7,21.37-1.16,10.73-3.71,34.3,8.85,47.95,2.93,3.18,9.16,8.53,21.5,10.55,2.86.68,20.27,4.5,36.97-6.61,16.61-11.06,19.86-28.46,20.35-31.37,6.79-19.83,9.4-36.37,10.51-47.99,1.88-19.65.05-31.12,2.03-61.05.81-12.21,1.9-22.21,2.71-28.83.81-3.74,3.18-16.97-4.07-31.03ZM373.93,152.38c-1.27,6.48-8.38,9.95-10.88,11.17-1.96.95-7.74,3.48-28.07.42-14.07-2.12-21.25-3.29-28.15-8.82-2.79-2.23-9.98-7.99-8.97-14.69.87-5.79,7.38-9,7.93-9.26,6.1-2.9,9.67.44,22.15-.72,5.19-.48,4.36-1.04,9.07-1.44,5.3-.45,14.19-1.15,22.38,2.97,7.05,3.55,16.16,11.98,14.53,20.37Z"></path>
  <path class="cls-1" d="M429.35,68.5c-1.9,16.83,27.11,37.52,28.74,38.66,2.41,1.67,15.72,11.24,18.31,29,1.8,12.27-2.48,21.84-4.32,25.44-5.01,10.56-10.53,17.82-14.5,22.38-6.8,7.82-11.7,10.79-21.88,21.37-5.89,6.12-10.3,11.42-12.97,14.75-3.56,5.47-4.71,10.36-5.09,13.74-1.68,15.03,8.5,30.75,25.44,40.7,20.69,13.31,41.38,26.62,62.07,39.94,8.9,6.8,15.82,12.61,20.35,16.53,15.97,13.81,21.85,20.98,31.29,20.86,5.56-.07,10.02-2.64,12.72-4.58,2.04-2.04,4.96-5.47,7.12-10.43,2.85-6.51,2.96-12.37,2.8-15.52-.56-4.38-1.66-9.8-3.82-15.77-2.72-7.51-6.21-13.37-9.16-17.55-9.1-11.83-18.65-25.54-27.98-41.21-8.21-13.78-14.99-26.97-20.6-39.17-1.03-2.46-3.62-9.56-1.53-18.31,1.67-6.96,5.47-11.49,7.38-13.48,1.31-.72,9.46-5.06,18.77-1.71,4.82,1.74,7.86,4.87,10.73,8.32,4.91,5.89,12.37,16.17,19.2,32.18,1.22,2.59,3.85,7.14,9.03,10.3,2.74,1.67,7.18,4.39,11.7,2.8,4.52-1.59,6.43-6.85,7.12-8.78,3.99-11.06-5.78-49.89-55.2-104.67-13.13-14.56-40.02-42.39-75.17-54.94-9.02-3.22-27.32-9.52-36.03-1.14-3.9,3.75-4.4,9.06-4.54,10.3Z"></path>
  <path class="cls-1" d="M441.05,123.7c-3.75.16-6.04,2.71-6.55,3.31-1.4,1.66-1.91,3.47-2.35,6.36-1.24,8.05.22,9.73-.64,16.47-.73,5.74-2.27,8.34-.76,9.73,1.78,1.64,5.88-.2,6.42-.45,6.98-3.13,9.29-11.65,10.86-17.42,1.68-6.18,3.1-11.41.14-14.95-1.57-1.87-4.28-3.17-7.12-3.05Z"></path>
  <path class="cls-1" d="M339.48,12.12c.43-3.69,1.95-5.86,2.8-6.87,3.25-3.85,8.28-4.5,12.12-5,2.48-.32,4.57-.27,6.02-.17,8.99.49,16.37,1.86,21.71,3.14,0,0,21.46,5.13,32.47,16.7,1.43,1.5,3.3,3.8,3.49,6.97.17,2.69-.85,6.24-3.16,7.45-3.46,1.81-7.92-2.62-13.74-5.85-14.15-7.85-32.56-6.44-43.67-5.6-7.07.54-13.47,1.65-16.53-1.95-2.12-2.49-1.98-6.13-1.53-8.82Z"></path>
  <ellipse class="cls-1" cx="65.22" cy="253.36" rx="8.14" ry="9.48"></ellipse>
  <path class="cls-1" d="M78.84,201.41c1.5-.86,5.97-2.83,11.83-2.42,5.03.36,9.41,3.34,11.32,7.76,1.65,3.82,1.55,9.35-1.53,12.59-5.18,5.45-13.89-.72-21.82,5.02-5.49,3.98-5.8,10.21-7.94,9.86-2.36-.39-3.6-8.2-2.63-14.78.38-2.56,1.9-12.93,10.77-18.03Z"></path>
  <path class="cls-1" d="M25.67,254.83c-6.35.01-11.01,3.69-12.59,5.09,0,0-.63.57-1.22,1.21-8.5,9.26-10.78,32.92-10.78,32.92C-.18,307.2.01,314.55.01,314.55c.41,15.78.92,35.21,7.69,61.56,0,0,9.25,36.02,41.72,83.43,2.51,3.67,7.34,10.44,15.26,11.87,9.55,1.72,17.84-5.37,18.48-5.94,4.38-3.86,6.14-8.29,7.12-10.85,4.12-10.76,1.38-20.84,0-24.93-3.61-11.67-6.89-20.96-9.16-27.13-5.91-16.12-9.26-22.85-5.77-28.15,2.24-3.39,6.97-5.73,11.36-5.26,5.92.63,9.14,6.15,23.91,29.68,6.21,9.89,9.4,14.87,14.1,17.02,7.86,3.6,16.97,1.39,21.16-.74,14.86-7.55,18.13-39.75,8.5-79.28-9.78-25.58-16.42-43.16-20.09-52.91-9.16-24.32-14.98-40.05-28.21-43.82-2.08-.59-5.96-1.7-9.43.07-9.11,4.63-9.6,26.03-1.78,54.69.41.85,4.24,9.06,0,16.79-3.89,7.09-12.93,10.77-21.88,8.39-2.82-1.13-7.48-3.36-11.83-7.63-16.18-15.89-7.75-40.3-23.53-52.15-1.75-1.32-6.07-4.46-11.96-4.45Z"></path>
  <path class="cls-1" d="M164.39,338.13c-3.46,21.12,12.98,40.02,22.38,50.53,11.19,12.51,42.61,47.66,90.72,46.13,7.18-.23,40.97-1.3,62.57-25.95,7.24-8.25,10.45-16.13,14.58-26.23,1.63-3.99,12.34-31.17,6.45-62.97-1.47-7.93-3.28-12.41-7.03-15.74-10.25-9.11-27.39-3.01-28.58-2.57-17.64,6.55-22.94,25.73-23.57,28.15-.32,2.26-.5,5.7.68,9.5,2.75,8.84,9.87,9.81,13.33,16.63,4.82,9.51-1.5,22.43-6.04,28.64-9.14,12.51-23.21,14.45-25.78,14.75-5.65.34-18.56.31-31.88-7.29-20.75-11.84-26.44-32.86-27.47-36.97-.67-3.71-4.43-22.45-21.03-31.88-2.59-1.47-17.66-10.03-29-3.05-8.17,5.03-9.86,15.33-10.34,18.31Z"></path>
  <path class="cls-1" d="M243.58,342.03c5.47,1.64,9.12,5.33,11.19,7.97,3.88,4.02,6.91,4.63,8.82,4.58,7.34-.2,10.01-10.59,18.65-12.04,4.14-.7,7.83.96,10,2.2,2.14,1.7,6.51,5.68,8.48,12.21,3.44,11.38-3.23,21.04-4.59,23.01-1.97,2.85-5.5,7.97-11.86,9.89-8.83,2.66-17.06-2.65-24.25-7.29-1.89-1.22-10.51-6.95-17.39-18.23-3.71-6.08-10.05-18.91-6.35-22.3,1.62-1.48,4.67-.78,7.29,0Z"></path>
  <ellipse class="cls-1" cx="415.22" cy="288.3" rx="7.97" ry="6.95"></ellipse>
  <path class="cls-1" d="M134.88,449.21c2.65-3.62,14.97-19.62,36.63-22.72,21.68-3.11,37.68,8.86,44.43,13.91,18.08,13.52,24.43,31.74,26.45,38.66,2.85,6.04,7.27,14.47,13.8,23.83,12.13,17.39,17.75,20.01,21.13,20.94,1.11.31,7.22,1.9,13.91-.32,11.28-3.74,15.26-15.34,23.4-32.23,21.21-44.05,35.94-52,41.38-54.26,2.95-1.23,9.47-3.84,16.28-1.36,5.66,2.07,8.76,6.65,9.84,8.48,3.12,5.3,3.26,11.15,2.37,17.3-3.19,22.22-16.9,28.9-19.67,48.84-1.03,7.4-.12,13.54.55,16.85.94,2.89,7.07,23.01-4.96,42.17-9.37,14.92-23.84,19.82-27.81,21.03-7.83,1.74-24.12,4.22-43.07-1.7-26.88-8.4-40.99-28.03-45.11-34.25-5.65-6.71-13.82-14.76-25.1-21.71-4.3-2.65-8.46-4.77-12.34-6.49-1.53-.67-11.52-2.29-15.47,3.44-2.14,3.1-1.52,6.97-1.15,8.61.76,2.46,2.82,10.24-1.22,15.81-6.48,8.94-23.31,5.04-26.79,3.73-15.57-5.83-23.76-14.83-27.47-19.67-18.29-23.85-10.96-55.17-8.48-65.8,2.32-9.91,5.75-17.74,8.48-23.06Z"></path>
  <path class="cls-1" d="M276.99,485.66c1.08-3.47,6.22-1.98,10.94-6.36,5.88-5.45,3.09-12.56,8.39-15.26,2.97-1.51,6.91-.85,9.41,1.02,3.08,2.3,3.51,6.1,3.82,8.9.28,2.55,1.35,12.18-5.85,18.57-5.79,5.13-15.02,6.49-21.11,2.54-3.13-2.03-6.59-6.21-5.6-9.41Z"></path>
  <path class="cls-1" d="M548.27,444.44c-6.21-23.92-63.59-147.93-129.85-136.33-2.1.37-25.77,4.89-38.66,25.8-14.94,24.24-4.24,52.39-2.55,56.65,23.46,43.74,21.6,70.45,14.26,87.22-6.13,14.03-17.48,24.28-16.81,41.96.59,15.45,10.02,27.83,18.31,36.12,3.24,2.83,12.9,10.48,25.69,9.67,18.36-1.16,29.66-18.9,33.39-30.44,2.78-8.61,2.16-16.26,1.71-21.71-.95-11.66-4.63-20.7-7.38-26.2-2.08-4.55-4.6-11.41-5.6-20.1-.95-8.31-.16-15.29.76-20.09.63-2.81,3.21-12.71,12.46-18.57.97-.62,14-8.64,21.81-2.48,3.31,2.61,4.3,6.67,4.64,8.89,4.01,30.1,19.39,51.44,36.63,53.37,3.51.39,8.71.16,15.26-3.05,4.68-2.98,12.34-8.94,15.77-18.82,3.32-9.57,1.08-18.21.12-21.89ZM436.73,403.5c-2.73.65-7.08,1.68-9.16-.51-3.49-3.69,1.88-14.03,6.05-19.45,2.31-3,5.45-6.97,10.74-8.02,1.08-.22,6.08-1.21,9.16,1.78,1.92,1.86,2.2,4.4,2.29,5.34.83,8.54-8.71,18.4-19.08,20.86Z"></path>
</svg>
